<?xml version="1.0" encoding="UTF-8"?>
<!DOCTYPE svg PUBLIC "-//W3C//DTD SVG 1.1//EN" "http://www.w3.org/Graphics/SVG/1.1/DTD/svg11.dtd">
<!-- Creator: CorelDRAW X8 -->
<svg xmlns="http://www.w3.org/2000/svg" xml:space="preserve" width="40.7995mm" height="13.0304mm" version="1.1" style="shape-rendering:geometricPrecision; text-rendering:geometricPrecision; image-rendering:optimizeQuality; fill-rule:evenodd; clip-rule:evenodd"
viewBox="0 0 493 158"
 xmlns:xlink="http://www.w3.org/1999/xlink">
 <defs>
  <style type="text/css">
   <![CDATA[
    .fil0 {fill:white}
   ]]>
  </style>
 </defs>
 <g id="Camada_x0020_1">
  <metadata id="CorelCorpID_0Corel-Layer"/>
  <g id="_1704145154608">
   <path class="fil0" d="M81 75l0 -19 -26 0 0 -9 26 0 0 -18 -1 0c-1,0 -14,0 -15,0 -2,1 -3,2 -4,3 -2,2 -3,5 -4,7 -2,5 -4,10 -6,14 -2,5 -4,10 -7,14 -2,4 -4,7 -8,10 -3,2 -6,4 -11,6 -4,1 -9,1 -14,1l-11 0 0 -9 13 0c3,0 6,0 9,-2 4,-1 7,-5 8,-7 4,-5 6,-10 8,-16 2,-6 4,-12 8,-18 2,-3 6,-7 10,-10 4,-1 9,-2 14,-2l24 0 0 55c2,-1 3,-1 4,-2 4,-1 6,-5 8,-7 4,-5 6,-10 8,-16 2,-6 4,-12 8,-18 2,-3 6,-7 10,-10 4,-1 9,-2 14,-2l14 0 0 9 -14 0c-2,0 -4,0 -5,0 -2,1 -3,2 -4,3 -2,2 -3,5 -4,7 -3,5 -4,10 -6,14 -2,5 -4,10 -7,14 -2,4 -4,7 -8,10 -3,2 -6,4 -11,6 -4,1 -9,1 -14,1l-16 0 0 -9 10 0zm356 -47c14,0 22,0 36,0 4,0 7,2 7,6l0 50 13 0 0 -50c0,-10 -4,-14 -19,-14 -15,0 -23,0 -38,0 -14,0 -19,4 -19,14l0 50 13 0 0 -50c0,-4 3,-6 7,-6zm-218 -8l13 0 0 53c3,-2 6,-5 8,-7 3,-5 6,-11 7,-16 2,-6 5,-12 9,-18 2,-4 5,-7 10,-10 4,-2 9,-2 14,-2l130 0 0 8 -48 0 0 18 45 0 0 9 -45 0 0 15c0,1 0,3 2,4 3,1 8,2 10,2l36 0 0 8 -36 0c-4,0 -9,0 -14,-1 -3,-1 -6,-2 -8,-5 -2,-2 -3,-6 -3,-8l0 -41 -22 0 0 55 -13 0 0 -55 -23 0 0 0 -12 0c-1,0 -3,0 -5,0 -1,1 -2,2 -3,3 -2,2 -4,5 -5,7 -2,5 -4,9 -5,14 -2,5 -4,10 -7,14 -2,4 -5,7 -8,10 -3,2 -7,4 -11,5 -5,2 -10,2 -14,2l-11 0 0 -9 9 0 0 -55zm0 -20l14 0 0 14 -14 0 0 -14zm-8 20l0 9 -14 0c-2,0 -4,0 -5,0 -1,1 -3,2 -3,3 -2,2 -4,5 -5,7 -2,5 -4,10 -6,14 -1,5 -4,10 -6,14 -2,4 -5,7 -8,10 -3,2 -7,4 -11,6 -5,1 -10,1 -15,1l-11 0 0 -9 13 0c3,0 7,0 10,-2 3,-1 6,-5 8,-7 3,-5 5,-10 7,-16 2,-6 5,-12 8,-18 3,-3 6,-7 11,-10 4,-1 9,-2 14,-2l13 0z"/>
   <path class="fil0" d="M362 100l0 18 46 0 0 9 -46 0 0 15c0,1 0,3 2,4 3,1 8,1 10,1l36 0 0 9 -36 0c-4,0 -9,0 -14,-1 -3,-1 -6,-3 -8,-5 -2,-2 -3,-6 -3,-8l0 -50 61 0 0 8 -48 0zm98 7l-10 0c-1,0 -3,-2 -3,-3l0 -8 -8 0c-1,0 -2,-1 -2,-3l0 -10c0,-2 1,-3 2,-3l8 0 0 -8c0,-1 2,-3 3,-3l10 0c2,0 3,2 3,3l0 8 8 0c2,0 3,1 3,3l0 10c0,2 -1,3 -3,3l-8 0 0 8c0,1 -1,3 -3,3zm-23 40l43 0 0 9 -44 0c-14,0 -19,-5 -19,-15l0 -49 13 0 0 49c0,5 3,6 7,6zm-144 -46c-4,1 -7,3 -10,6 -3,2 -6,5 -7,8 -2,3 -3,6 -3,9 0,3 1,6 3,9 1,3 4,6 7,8 3,2 6,4 10,6 16,5 34,-1 44,-11l4 8c-10,8 -20,14 -36,14 -9,0 -17,-2 -24,-5 -6,-4 -12,-8 -15,-13 -4,-5 -5,-11 -5,-16 0,-4 1,-8 2,-12 2,-4 5,-8 9,-11 4,-4 9,-6 14,-8 15,-5 34,-4 46,4 4,3 7,5 10,9l-5 6c-11,-10 -27,-17 -44,-11z"/>
  </g>
 </g>
</svg>
