<?xml version="1.0" encoding="UTF-8"?>
<!DOCTYPE svg PUBLIC "-//W3C//DTD SVG 1.1//EN" "http://www.w3.org/Graphics/SVG/1.1/DTD/svg11.dtd">
<!-- Creator: CorelDRAW X8 -->
<svg xmlns="http://www.w3.org/2000/svg" xml:space="preserve" width="78.6887mm" height="25.1313mm" version="1.1" style="shape-rendering:geometricPrecision; text-rendering:geometricPrecision; image-rendering:optimizeQuality; fill-rule:evenodd; clip-rule:evenodd"
viewBox="0 0 1714 547"
 xmlns:xlink="http://www.w3.org/1999/xlink">
 <defs>
  <style type="text/css">
   <![CDATA[
    .fil1 {fill:#7AB335}
    .fil0 {fill:#808285}
   ]]>
  </style>
 </defs>
 <g id="Camada_x0020_1">
  <metadata id="CorelCorpID_0Corel-Layer"/>
  <g id="_1704145159696">
   <path class="fil0" d="M283 262l0 -68 -92 0 0 -29 92 0 0 -66 -4 0c-6,0 -49,1 -54,3 -5,1 -10,5 -12,9 -7,7 -12,17 -16,25 -7,16 -14,33 -20,49 -6,17 -13,34 -23,49 -7,12 -16,24 -28,34 -10,8 -23,15 -38,19 -16,4 -33,5 -50,5l-38 0 0 -30 44 0c12,0 23,-2 33,-7 13,-6 22,-17 29,-26 12,-17 19,-36 25,-54 8,-21 16,-44 29,-64 8,-12 19,-25 35,-33 15,-7 32,-9 49,-9l84 0 0 190c4,-1 9,-2 13,-4 13,-6 22,-17 29,-26 11,-17 19,-36 25,-54 7,-21 16,-44 29,-64 8,-12 19,-25 35,-33 15,-7 31,-9 49,-9l47 0 0 30 -49 0c-6,0 -12,1 -17,3 -5,1 -10,5 -12,9 -7,7 -12,17 -16,25 -8,16 -14,33 -20,49 -6,17 -13,34 -23,49 -7,12 -16,24 -28,34 -10,8 -23,15 -38,19 -16,4 -33,5 -50,5l-54 0 0 -30 35 0zm1236 -164c50,0 76,0 126,0 14,0 24,5 24,21l0 173 45 0 0 -172c0,-36 -16,-52 -66,-52 -52,0 -80,0 -132,0 -50,0 -66,16 -66,52l0 172 45 0 0 -173c0,-16 10,-21 24,-21zm-758 -28l45 0 0 184c12,-6 22,-17 28,-25 12,-17 20,-36 26,-54 7,-21 15,-44 28,-64 8,-12 20,-26 36,-33 14,-7 31,-10 48,-10l451 0 0 30 -165 0 0 63 155 0 0 30 -155 0 0 51c0,5 1,13 8,16 8,4 25,4 35,4l122 0 0 30 -122 0c-16,0 -33,0 -48,-4 -14,-3 -24,-8 -31,-16 -7,-9 -9,-20 -9,-30l0 -143 -77 0 0 193 -45 0 0 -193 -81 0 0 0 -40 0c-5,0 -12,1 -17,2 -5,2 -9,6 -12,9 -7,8 -12,18 -16,26 -7,16 -14,32 -20,49 -6,16 -13,33 -23,49 -7,12 -16,24 -28,33 -10,9 -23,15 -38,19 -15,5 -33,6 -49,6l-39 0 0 -31 33 0 0 -191zm0 -70l50 0 0 48 -50 0 0 -48zm-28 69l0 30 -49 0c-5,0 -12,1 -17,3 -5,1 -9,5 -12,9 -6,7 -11,17 -15,25 -8,16 -14,33 -20,49 -7,17 -14,34 -23,49 -7,12 -16,24 -28,34 -11,8 -23,15 -38,19 -16,4 -33,5 -50,5l-39 0 0 -30 44 0c12,0 24,-2 34,-7 12,-6 22,-17 28,-26 12,-17 20,-36 26,-54 7,-21 16,-44 29,-64 8,-12 19,-25 35,-33 14,-7 31,-9 48,-9l47 0z"/>
   <path class="fil1" d="M1258 348l0 63 161 0 0 30 -161 0 0 51c0,5 1,13 8,16 8,4 25,4 35,4l123 0 0 30 -123 0c-16,0 -34,0 -48,-4 -14,-3 -25,-8 -31,-16 -7,-9 -9,-20 -9,-30l0 -174 211 0 0 30 -166 0zm342 23l-36 0c-5,0 -9,-5 -9,-10l0 -28 -28 0c-6,0 -10,-4 -10,-10l0 -35c0,-5 4,-10 10,-10l28 0 0 -28c0,-5 4,-9 9,-9l36 0c5,0 9,4 9,9l0 28 28 0c5,0 10,5 10,10l0 35c0,6 -5,10 -10,10l-28 0 0 28c0,5 -4,10 -9,10zm-81 141l150 0 0 30 -153 0c-50,0 -66,-16 -66,-51l0 -173 45 0 0 173c0,17 10,21 24,21zm-501 -161c-14,5 -26,12 -36,20 -10,8 -18,18 -24,28 -5,10 -9,20 -9,31 0,11 3,21 9,32 6,10 14,19 24,28 11,8 23,15 37,20 55,19 118,-2 152,-38l14 27c-34,31 -71,48 -125,48 -30,0 -58,-5 -82,-17 -24,-11 -42,-26 -54,-44 -12,-18 -19,-36 -19,-56 0,-14 4,-28 11,-42 6,-14 16,-26 29,-38 14,-11 31,-20 49,-27 52,-18 117,-12 161,15 14,9 23,17 34,29l-16 22c-39,-34 -96,-59 -155,-38z"/>
  </g>
 </g>
</svg>
